<svg id="visual" viewBox="0 0 675 900" width="675" height="900" xmlns="http://www.w3.org/2000/svg" xmlns:xlink="http://www.w3.org/1999/xlink" version="1.1"><path d="M206 0L206.3 7.5C206.7 15 207.3 30 224.3 45C241.3 60 274.7 75 262.2 90C249.7 105 191.3 120 190 135C188.7 150 244.3 165 259.2 180C274 195 248 210 244.2 225C240.3 240 258.7 255 271.5 270C284.3 285 291.7 300 283 315C274.3 330 249.7 345 237.7 360C225.7 375 226.3 390 237.7 405C249 420 271 435 254.2 450C237.3 465 181.7 480 165 495C148.3 510 170.7 525 173 540C175.3 555 157.7 570 163.7 585C169.7 600 199.3 615 215 630C230.7 645 232.3 660 231.7 675C231 690 228 705 232.8 720C237.7 735 250.3 750 266.5 765C282.7 780 302.3 795 298 810C293.7 825 265.3 840 234 855C202.7 870 168.3 885 151.2 892.5L134 900L0 900L0 892.5C0 885 0 870 0 855C0 840 0 825 0 810C0 795 0 780 0 765C0 750 0 735 0 720C0 705 0 690 0 675C0 660 0 645 0 630C0 615 0 600 0 585C0 570 0 555 0 540C0 525 0 510 0 495C0 480 0 465 0 450C0 435 0 420 0 405C0 390 0 375 0 360C0 345 0 330 0 315C0 300 0 285 0 270C0 255 0 240 0 225C0 210 0 195 0 180C0 165 0 150 0 135C0 120 0 105 0 90C0 75 0 60 0 45C0 30 0 15 0 7.5L0 0Z" fill="#fa7268"></path><path d="M108 0L108.5 7.5C109 15 110 30 136.3 45C162.7 60 214.3 75 218 90C221.7 105 177.3 120 169.7 135C162 150 191 165 209.5 180C228 195 236 210 233 225C230 240 216 255 215 270C214 285 226 300 218.8 315C211.7 330 185.3 345 187.3 360C189.3 375 219.7 390 219.2 405C218.7 420 187.3 435 184.2 450C181 465 206 480 224.5 495C243 510 255 525 243.7 540C232.3 555 197.7 570 171.8 585C146 600 129 615 135.8 630C142.7 645 173.3 660 180.8 675C188.3 690 172.7 705 174.5 720C176.3 735 195.7 750 203 765C210.3 780 205.7 795 198.2 810C190.7 825 180.3 840 191.5 855C202.7 870 235.3 885 251.7 892.5L268 900L0 900L0 892.5C0 885 0 870 0 855C0 840 0 825 0 810C0 795 0 780 0 765C0 750 0 735 0 720C0 705 0 690 0 675C0 660 0 645 0 630C0 615 0 600 0 585C0 570 0 555 0 540C0 525 0 510 0 495C0 480 0 465 0 450C0 435 0 420 0 405C0 390 0 375 0 360C0 345 0 330 0 315C0 300 0 285 0 270C0 255 0 240 0 225C0 210 0 195 0 180C0 165 0 150 0 135C0 120 0 105 0 90C0 75 0 60 0 45C0 30 0 15 0 7.5L0 0Z" fill="#ef5f67"></path><path d="M126 0L127.3 7.5C128.7 15 131.3 30 143 45C154.7 60 175.3 75 168 90C160.7 105 125.3 120 123.5 135C121.7 150 153.3 165 168.7 180C184 195 183 210 168 225C153 240 124 255 120.3 270C116.7 285 138.3 300 147 315C155.7 330 151.3 345 160.7 360C170 375 193 390 183.7 405C174.3 420 132.7 435 109.8 450C87 465 83 480 96.5 495C110 510 141 525 145.2 540C149.3 555 126.7 570 115.5 585C104.3 600 104.7 615 106.8 630C109 645 113 660 116.8 675C120.7 690 124.3 705 124.8 720C125.3 735 122.7 750 117.3 765C112 780 104 795 110.7 810C117.3 825 138.7 840 143 855C147.3 870 134.7 885 128.3 892.5L122 900L0 900L0 892.5C0 885 0 870 0 855C0 840 0 825 0 810C0 795 0 780 0 765C0 750 0 735 0 720C0 705 0 690 0 675C0 660 0 645 0 630C0 615 0 600 0 585C0 570 0 555 0 540C0 525 0 510 0 495C0 480 0 465 0 450C0 435 0 420 0 405C0 390 0 375 0 360C0 345 0 330 0 315C0 300 0 285 0 270C0 255 0 240 0 225C0 210 0 195 0 180C0 165 0 150 0 135C0 120 0 105 0 90C0 75 0 60 0 45C0 30 0 15 0 7.5L0 0Z" fill="#e34c67"></path><path d="M80 0L92.5 7.5C105 15 130 30 128.3 45C126.7 60 98.3 75 84 90C69.7 105 69.3 120 81.2 135C93 150 117 165 128.3 180C139.7 195 138.3 210 130.3 225C122.3 240 107.7 255 93.5 270C79.3 285 65.7 300 71.2 315C76.7 330 101.3 345 100.7 360C100 375 74 390 59.8 405C45.7 420 43.3 435 57.3 450C71.3 465 101.7 480 121.5 495C141.3 510 150.7 525 144.7 540C138.7 555 117.3 570 104.7 585C92 600 88 615 80.5 630C73 645 62 660 67.7 675C73.3 690 95.7 705 113.3 720C131 735 144 750 139.3 765C134.7 780 112.3 795 105.8 810C99.3 825 108.7 840 103.3 855C98 870 78 885 68 892.5L58 900L0 900L0 892.5C0 885 0 870 0 855C0 840 0 825 0 810C0 795 0 780 0 765C0 750 0 735 0 720C0 705 0 690 0 675C0 660 0 645 0 630C0 615 0 600 0 585C0 570 0 555 0 540C0 525 0 510 0 495C0 480 0 465 0 450C0 435 0 420 0 405C0 390 0 375 0 360C0 345 0 330 0 315C0 300 0 285 0 270C0 255 0 240 0 225C0 210 0 195 0 180C0 165 0 150 0 135C0 120 0 105 0 90C0 75 0 60 0 45C0 30 0 15 0 7.5L0 0Z" fill="#d53867"></path><path d="M44 0L50.5 7.5C57 15 70 30 68 45C66 60 49 75 49.3 90C49.7 105 67.3 120 67 135C66.7 150 48.3 165 36 180C23.7 195 17.3 210 21.2 225C25 240 39 255 50.3 270C61.7 285 70.3 300 74.8 315C79.3 330 79.7 345 81 360C82.3 375 84.7 390 86 405C87.3 420 87.7 435 85.2 450C82.7 465 77.3 480 70.8 495C64.3 510 56.7 525 48.8 540C41 555 33 570 28.7 585C24.3 600 23.7 615 30 630C36.3 645 49.7 660 48.3 675C47 690 31 705 29.7 720C28.3 735 41.7 750 45.5 765C49.3 780 43.7 795 37.2 810C30.7 825 23.3 840 20.7 855C18 870 20 885 21 892.5L22 900L0 900L0 892.5C0 885 0 870 0 855C0 840 0 825 0 810C0 795 0 780 0 765C0 750 0 735 0 720C0 705 0 690 0 675C0 660 0 645 0 630C0 615 0 600 0 585C0 570 0 555 0 540C0 525 0 510 0 495C0 480 0 465 0 450C0 435 0 420 0 405C0 390 0 375 0 360C0 345 0 330 0 315C0 300 0 285 0 270C0 255 0 240 0 225C0 210 0 195 0 180C0 165 0 150 0 135C0 120 0 105 0 90C0 75 0 60 0 45C0 30 0 15 0 7.5L0 0Z" fill="#c62368"></path></svg>